# xmcd CD database file
#
# Track frame offsets:
#	150
#	21760
#	36757
#	59517
#
# Disc length: 1092 seconds
#
# Revision: 1
# Processed by: cddbd v1.5PL3 Copyright (c) Steve Scherf et al.
# Submitted via: CDex 1.51
#
DISCID=2d044204
DTITLE=ハナエリカ - 恋の技を決めてあなたを振り向かせる。
DYEAR=2004
DGENRE=JPop
TTITLE0=恋の技を決めてあなたを振り向かせる。
TTITLE1=フリーダ
TTITLE2=El camino
TTITLE3=恋の技を決めてあなたを振り向かせる。 (3990MIX)
EXTD=YEAR: 2004
EXTT0=
EXTT1=
EXTT2=
EXTT3=
PLAYORDER=
